<svg xmlns="http://www.w3.org/2000/svg" viewBox="0 0 116.5 72"><path d="M-15.1-15.1h146.8v120.6H-15.1V-15.1z" fill="none"/><path d="M42.5 7.7H74v56.6H42.5V7.7z" fill="#7673c0"/><path d="M44.5 36c0-11.5 5.4-21.7 13.7-28.3C52.1 2.9 44.4 0 36 0 16.1 0 0 16.1 0 36s16.1 36 36 36c8.4 0 16.1-2.9 22.2-7.7-8.3-6.6-13.7-16.8-13.7-28.3z" fill="#eb001b"/><path d="M116.5 36c0 19.9-16.1 36-36 36-8.4 0-16.1-2.9-22.2-7.7C66.6 57.7 72 47.5 72 36S66.6 14.3 58.2 7.7C64.4 2.9 72.1 0 80.5 0c19.9 0 36 16.1 36 36z" fill="#00a1df"/></svg>