<svg xmlns="http://www.w3.org/2000/svg" viewBox="0 0 264.3 74.5"><path d="M147.2 7.9l-16.7 36.2h-1.7V0H105v74.5h20.1c5.3 0 10.1-3.1 12.3-7.9l16.7-36.2h1.7v44.1h23.7V0h-20.1c-5.2 0-10 3.1-12.2 7.9zm-89 1.9l-9.9 34.3h-1.7L36.7 9.8C35 4 29.7 0 23.7 0H0v74.5h23.7v-44h1.7l13.6 44h16.9l13.6-44.1h1.7v44.1h23.7V0H71.2c-6 0-11.4 4-13 9.8zm131.6 24.1v40.7h23.7V50.8H239c11.1 0 20.4-7.1 23.9-16.9h-73.1z" fill="#319b42"/><linearGradient id="a" gradientUnits="userSpaceOnUse" x1="186.367" y1="15.248" x2="264.303" y2="15.248"><stop offset="0" stop-color="#00a3e1"/><stop offset=".304" stop-color="#009add"/><stop offset=".799" stop-color="#0082d4"/><stop offset="1" stop-color="#0076cf"/></linearGradient><path d="M238.9 0h-52.5c3.2 17.3 18.4 30.5 36.6 30.5h40.8c.3-1.6.5-3.3.5-5.1 0-14-11.4-25.4-25.4-25.4z" fill="url(#a)"/></svg>