<svg xmlns="http://www.w3.org/2000/svg" viewBox="0 0 169.3 54.7"><path d="M83.8 1L72.5 53.9H58.8L70.2 1h13.6zm57.6 34.1l7.2-19.9 4.1 19.9h-11.3zm15.3 18.8h12.7L158.3 1h-11.7c-2.6 0-4.8 1.5-5.8 3.9l-20.5 49h14.4l2.8-7.9H155l1.7 7.9zM121 36.6c.1-14-19.3-14.7-19.2-21 0-1.9 1.8-3.9 5.8-4.4 2-.3 7.4-.5 13.5 2.4l2.4-11.2C120.2 1.1 116 0 110.7 0c-13.5 0-23 7.2-23.1 17.5-.1 7.6 6.8 11.9 12 14.4 5.3 2.6 7.1 4.3 7.1 6.6 0 3.6-4.3 5.1-8.2 5.2-6.9.1-10.9-1.9-14.1-3.3L81.9 52c3.2 1.5 9.1 2.7 15.2 2.8 14.4-.1 23.8-7.2 23.9-18.2M64.3 1L42.1 53.9H27.7l-11-42.3C16 9 15.5 8.1 13.5 7 10.2 5.2 4.8 3.5 0 2.5L.3 1h23.3c3 0 5.6 2 6.3 5.4L35.7 37 49.9 1h14.4" fill="#2a2a6c"/></svg>